# xmcd
# 
# Track frame offsets:
#     150
#     20788
#     41600
#     80605
#     104820
#     128318
#     149809
#     166467
#     192800
#     227736
#     246154
# 
# Disc length: 3598
# 
# Revision: 3
# Processed by: cddbd v1.5.2PL0 Copyright (c) Steve Scherf et al.
# Submitted via: BonkEnc v1.0.8
# 
DISCID=9a0e0c0b
DTITLE=矢野　沙織 - Bebop At The Savoy
DYEAR=2010
DGENRE=Jazz
TTITLE0=The Kicker
TTITLE1=Sweet Cakes
TTITLE2=Blues Walk
TTITLE3=You'd Be So Nice To Come Home To
TTITLE4=S' Wonderful
TTITLE5=Lullaby Of Birdland
TTITLE6=Olive Refractions
TTITLE7=Stardust
TTITLE8=Five Spot After Dark
TTITLE9=How High The Moon
TTITLE10=Laura Peacock～太陽の船のテーマ～
EXTD=YEAR: 2010
EXTT0=
EXTT1=
EXTT2=
EXTT3=
EXTT4=
EXTT5=
EXTT6=
EXTT7=
EXTT8=
EXTT9=
EXTT10=
PLAYORDER=
